<?xml version="1.0" encoding="utf-8"?>
<!-- Generator: Adobe Illustrator 25.1.0, SVG Export Plug-In . SVG Version: 6.00 Build 0)  -->
<svg version="1.1" id="Layer_1" xmlns="http://www.w3.org/2000/svg" xmlns:xlink="http://www.w3.org/1999/xlink" x="0px" y="0px"
	 viewBox="0 0 615 270" style="enable-background:new 0 0 615 270;" xml:space="preserve">
<style type="text/css">
	.st0{fill:#B4D680;}
	.st1{fill:#2B2727;}
	.st2{font-family:'HelveticaNeue';}
	.st3{font-size:72px;}
</style>
<g>
	<g>
		<path class="st0" d="M136.04,122.96c-6.67-7.45-12.79-15.6-17.82-24.24c-3.23-5.54-6.43-11.6-6.17-18.17
			c0.3-7.61,2.74-15.02,7.11-21.25c6.68-9.53,18.73-16.86,30.56-17.02c11.32-0.15,21.35,10.97,28.6,18.42
			c7.11,7.3,14.11,15.48,19.87,23.32c1.96,2.67,6.94,3.79,8.63,0c3.12-6.98,7.22-13.66,11.71-19.83c7.2-9.9,17.69-20.97,30.64-22.09
			c18.55-1.6,29.22,13.54,30.99,30.11c2.34,21.82-3.78,44.44-10.3,65.04c-7.09,22.41-16.16,44.18-26.27,65.39
			c-4.12,8.65-8.42,17.23-13,25.65c-1.38,2.53-2.77,5.06-4.26,7.53c-0.42,0.7-0.88,1.38-1.29,2.08c-0.08,0.14-0.45,0.49-0.46,0.66
			c0.02-0.77,1.93-1.76,2.59-1.88c1.28,0.17,2.57,0.34,3.85,0.5c-0.01,0-0.01,0-0.02-0.01c-5.86-2.47-10.96,6.14-5.05,8.63
			c5.91,2.5,8.55-4.06,10.89-8.2c3.92-6.91,7.55-13.99,11.08-21.1c11.07-22.32,21.02-45.3,29.03-68.89
			c10.79-31.79,32.19-104.79-18.43-114.81c-28.18-5.58-50.2,23.43-60.36,46.16c2.88,0,5.76,0,8.63,0
			c-6.1-8.29-12.77-16.24-19.86-23.7c-9.06-9.53-20.95-21.97-34.92-22.92c-30.97-2.12-59.29,33.53-46.88,62.68
			c5.48,12.86,14.52,24.63,23.81,35.01C133.26,134.84,140.32,127.75,136.04,122.96L136.04,122.96z"/>
	</g>
</g>
<text transform="matrix(1 0 0 1 22.6523 173.2173)" class="st1 st2 st3">My SMART Home</text>
</svg>
